<svg width="40" height="40" viewBox="0 0 40 40" fill="none" xmlns="http://www.w3.org/2000/svg">
<g clip-path="url(#clip0_1_40)">
<path d="M34.8426 17.6991L31.2429 14.832V8.20381C31.2429 7.9728 31.0458 7.78549 30.8026 7.78549H26.1061C25.8629 7.78549 25.6658 7.9728 25.6658 8.20381V10.3901L20.3838 6.18326C20.2082 5.93896 19.793 5.93896 19.6174 6.18326L5.15847 17.6991C4.97923 17.8418 4.94876 18.0928 5.08909 18.2706L6.49803 20.0553C6.64621 20.2429 6.93848 20.2767 7.12961 20.1277L8.75828 18.858V34.0818C8.75828 34.3128 8.95544 34.5 9.19855 34.5H30.8026C31.0458 34.5 31.2428 34.3128 31.2428 34.0818V24.0987C31.2428 23.8677 31.0458 23.6804 30.8026 23.6804C30.5593 23.6804 30.3623 23.8677 30.3623 24.0987V33.6634H25.6071V29.1739C25.6071 26.237 23.092 23.8477 20.0006 23.8477C16.9092 23.8477 14.3942 26.2371 14.3942 29.1739V33.6634H9.63882V18.1714L20.0005 10.0934L30.3622 18.1714V22.0909C30.3622 22.3219 30.5593 22.5091 30.8025 22.5091C31.0457 22.5091 31.2428 22.3218 31.2428 22.0909V18.8579L32.8714 20.1276C33.0626 20.2766 33.3548 20.243 33.503 20.0552L34.912 18.2705C35.0524 18.0928 35.0219 17.8418 34.8426 17.6991ZM20.0005 24.6842C22.6064 24.6842 24.7264 26.6982 24.7264 29.1738V33.6633H15.2746V29.1738C15.2746 26.6982 17.3947 24.6842 20.0005 24.6842ZM26.5463 11.0854V8.62206H30.3622V14.1306L26.546 11.0912C26.546 11.0893 26.5463 11.0874 26.5463 11.0854ZM33.0745 19.2037L20.2799 9.22891C20.1194 9.10383 19.8817 9.10383 19.7212 9.22891L6.92653 19.2037L6.04381 18.0856L20.0006 6.96979L33.9573 18.0856L33.0745 19.2037Z" fill="black"/>
<path d="M19.9999 16.932C18.0092 16.932 16.3895 18.4706 16.3895 20.3619C16.3895 22.0906 17.7392 23.1226 19.9999 23.1226C22.2607 23.1226 23.6104 22.0906 23.6104 20.3619C23.6104 18.4706 21.9908 16.932 19.9999 16.932ZM19.9999 22.286C18.9805 22.286 17.2701 22.036 17.2701 20.3619C17.2701 18.9319 18.4947 17.7685 19.9999 17.7685C21.5052 17.7685 22.7298 18.9319 22.7298 20.3619C22.7298 22.0361 21.0195 22.286 19.9999 22.286Z" fill="black"/>
<path d="M18.2388 13.1396C17.3388 13.1396 16.7418 14.1969 16.7418 14.8964C16.7418 15.6806 17.4134 16.3185 18.2388 16.3185C19.0643 16.3185 19.7358 15.6806 19.7358 14.8964C19.7358 14.1969 19.1387 13.1396 18.2388 13.1396ZM18.2388 15.4819C17.8989 15.4819 17.6224 15.2193 17.6224 14.8964C17.6224 14.5008 17.9738 13.9761 18.2388 13.9761C18.5038 13.9761 18.8552 14.5008 18.8552 14.8964C18.8552 15.2193 18.5787 15.4819 18.2388 15.4819Z" fill="black"/>
<path d="M21.7611 13.1396C20.8612 13.1396 20.2641 14.1969 20.2641 14.8964C20.2641 15.6806 20.9357 16.3185 21.7611 16.3185C22.5866 16.3185 23.2581 15.6806 23.2581 14.8964C23.2582 14.1969 22.6611 13.1396 21.7611 13.1396ZM21.7611 15.4819C21.4212 15.4819 21.1447 15.2193 21.1447 14.8964C21.1447 14.5008 21.4962 13.9761 21.7611 13.9761C22.0262 13.9761 22.3775 14.5008 22.3775 14.8964C22.3776 15.2193 22.1011 15.4819 21.7611 15.4819Z" fill="black"/>
<path d="M24.5791 15.1473C23.6791 15.1473 23.0821 16.2047 23.0821 16.9041C23.0821 17.6883 23.7536 18.3263 24.5791 18.3263C25.4045 18.3263 26.0761 17.6883 26.0761 16.9041C26.0761 16.2047 25.479 15.1473 24.5791 15.1473ZM24.5791 17.4897C24.2392 17.4897 23.9627 17.227 23.9627 16.9041C23.9627 16.5085 24.3141 15.9839 24.5791 15.9839C24.844 15.9839 25.1955 16.5085 25.1955 16.9041C25.1955 17.227 24.919 17.4897 24.5791 17.4897Z" fill="black"/>
<path d="M15.4209 15.1473C14.5209 15.1473 13.9239 16.2047 13.9239 16.9041C13.9239 17.6883 14.5954 18.3263 15.4209 18.3263C16.2463 18.3263 16.9179 17.6883 16.9179 16.9041C16.9179 16.2047 16.3209 15.1473 15.4209 15.1473ZM15.4209 17.4897C15.081 17.4897 14.8045 17.227 14.8045 16.9041C14.8045 16.5085 15.1559 15.9839 15.4209 15.9839C15.6858 15.9839 16.0373 16.5085 16.0373 16.9041C16.0373 17.227 15.7608 17.4897 15.4209 17.4897Z" fill="black"/>
</g>
<defs>
<clipPath id="clip0_1_40">
<rect width="30" height="28.5" fill="white" transform="translate(5 6)"/>
</clipPath>
</defs>
</svg>
