<svg width="24" height="24" viewBox="0 0 24 24" fill="none" xmlns="http://www.w3.org/2000/svg">
<g clip-path="url(#clip0_4_69)">
<path d="M11.9998 10.8042C9.89737 10.8042 8.2417 13.2827 7.78521 14.9575C7.53227 15.8846 7.68871 16.7546 8.23808 17.4743C9.10003 18.6033 10.7488 19.1083 12.0001 19.1083C12.0012 19.1083 12.0023 19.1083 12.0031 19.1083C13.0598 19.1083 14.1699 18.7758 14.9728 18.2181C15.2049 18.0569 15.2626 17.7383 15.1017 17.5059C14.9403 17.2732 14.6214 17.2158 14.389 17.3769C13.7603 17.8132 12.8459 18.0841 12.0026 18.0841C12.0017 18.0841 12.0009 18.0841 12.0001 18.0841C11.033 18.0841 9.69765 17.6989 9.05147 16.8525C8.69817 16.3899 8.60442 15.8433 8.77276 15.2268C9.1516 13.8376 10.5185 11.8278 11.9995 11.8278C13.4802 11.8278 14.8488 13.8385 15.2282 15.2276C15.3696 15.7462 15.3258 16.2166 15.0992 16.6256C14.9622 16.873 15.0512 17.1847 15.2986 17.3217C15.546 17.4587 15.8577 17.3694 15.9947 17.1223C16.3505 16.4809 16.4271 15.7329 16.2163 14.9583C15.7588 13.2829 14.1017 10.8042 11.9998 10.8042Z" fill="black"/>
<path d="M13.9666 10.0118C14.102 10.042 14.2409 10.0573 14.3796 10.0573C15.439 10.0573 16.406 9.1729 16.6786 7.95376C16.8262 7.29592 16.7554 6.6259 16.4792 6.06707C16.185 5.47135 15.6966 5.07005 15.1031 4.93721C14.9681 4.90727 14.8291 4.89171 14.6907 4.89171C13.6308 4.89171 12.6642 5.77666 12.393 6.99555C12.08 8.39413 12.7858 9.74723 13.9666 10.0118ZM13.3923 7.21852C13.5576 6.47584 14.1161 5.91563 14.6908 5.91563C14.754 5.91563 14.8178 5.92285 14.8796 5.93669C15.1644 6.00047 15.4066 6.20766 15.561 6.52047C15.7338 6.8699 15.776 7.29949 15.6794 7.72992C15.4947 8.55553 14.8108 9.15346 14.1902 9.01231C13.5712 8.87365 13.2054 8.05248 13.3923 7.21852Z" fill="black"/>
<path d="M19.9855 10.8036C19.9162 10.1732 19.6089 9.65405 19.1206 9.34205C18.7021 9.07443 18.1851 8.98927 17.6646 9.10409C17.0151 9.24718 16.4177 9.68205 16.0255 10.2969C15.2906 11.4447 15.4834 12.8852 16.4557 13.5078C16.6937 13.6598 17.0103 13.5905 17.1631 13.3528C17.3151 13.1143 17.2458 12.7978 17.0078 12.6453C16.5195 12.3328 16.4645 11.5099 16.8883 10.8482C17.136 10.4599 17.4987 10.189 17.8848 10.1041C18.0645 10.065 18.3277 10.0498 18.5687 10.2045C18.7911 10.3468 18.9331 10.5992 18.9677 10.9151C19.0066 11.2723 18.9078 11.6575 18.6887 12.0003C18.4752 12.3344 18.1748 12.5835 17.8432 12.7013C17.5766 12.7956 17.4374 13.0885 17.5323 13.355C17.6066 13.565 17.804 13.6959 18.0145 13.6959C18.0714 13.6959 18.1291 13.6864 18.1862 13.6665C18.7315 13.4726 19.2165 13.0768 19.5515 12.5519C19.8963 12.0128 20.0502 11.3921 19.9855 10.8036Z" fill="black"/>
<path d="M7.70035 12.8009C7.54782 12.563 7.23195 12.4934 6.99317 12.6451C6.77049 12.7876 6.48149 12.8103 6.18003 12.7091C5.83947 12.5946 5.53135 12.343 5.31169 11.9992C5.06348 11.6117 4.96948 11.1686 5.05432 10.7825C5.09342 10.6034 5.19076 10.3582 5.43204 10.204C5.655 10.0617 5.94343 10.0393 6.2449 10.1399C6.58546 10.2539 6.89358 10.5058 7.11267 10.8482C7.32648 11.1822 7.4266 11.5591 7.39445 11.9099C7.36867 12.1916 7.57582 12.4407 7.8576 12.4665C8.1399 12.4909 8.38812 12.2845 8.41393 12.003C8.46662 11.427 8.31078 10.8211 7.97519 10.2964C7.63047 9.75776 7.13126 9.3573 6.56996 9.16927C5.96925 8.96737 5.36885 9.02921 4.88045 9.34149C4.46167 9.60883 4.16827 10.0426 4.05371 10.5631C3.91115 11.2129 4.05537 11.9379 4.44889 12.5513C4.79333 13.091 5.29254 13.4917 5.8544 13.6801C6.08681 13.7577 6.31893 13.7965 6.54468 13.7965C6.9027 13.7965 7.24439 13.6995 7.54444 13.5081C7.78272 13.3559 7.8526 13.0392 7.70035 12.8009Z" fill="black"/>
<path d="M9.62033 10.0573C9.75899 10.0573 9.89795 10.042 10.0333 10.0118C11.2139 9.74723 11.92 8.39413 11.6068 6.99608C11.3353 5.77666 10.3691 4.89171 9.30915 4.89171C9.17077 4.89171 9.03181 4.90724 8.89647 4.93721C8.30326 5.07005 7.81461 5.47135 7.52036 6.06707C7.24443 6.6259 7.17343 7.29592 7.32096 7.95376C7.59386 9.17262 8.56091 10.0573 9.62033 10.0573ZM8.43835 6.52022C8.59281 6.20766 8.83494 6.00022 9.12003 5.93644C9.18215 5.92257 9.24565 5.91563 9.30918 5.91563C9.8838 5.91563 10.4421 6.47584 10.6076 7.2188C10.794 8.05219 10.4285 8.87337 9.80948 9.01202C9.74736 9.02618 9.68358 9.03309 9.62008 9.03309C9.04518 9.03281 8.48635 8.47288 8.31994 7.72964C8.22369 7.29952 8.26557 6.86993 8.43835 6.52022Z" fill="black"/>
</g>
<defs>
<clipPath id="clip0_4_69">
<rect width="16" height="16" fill="white" transform="translate(4 4)"/>
</clipPath>
</defs>
</svg>
