<svg width="40" height="40" viewBox="0 0 40 40" fill="none" xmlns="http://www.w3.org/2000/svg">
<path d="M34.53 33.47L24.03 22.97C25.8533 20.872 26.7908 18.1482 26.6451 15.3725C26.4993 12.5968 25.2817 9.98607 23.2487 8.09058C21.2158 6.19508 18.5264 5.16286 15.7473 5.21146C12.9682 5.26006 10.3165 6.38569 8.35111 8.3511C6.38569 10.3165 5.26006 12.9682 5.21147 15.7473C5.16287 18.5264 6.19509 21.2158 8.09058 23.2487C9.98607 25.2817 12.5968 26.4993 15.3725 26.6451C18.1482 26.7908 20.872 25.8533 22.97 24.03L33.47 34.53C33.6106 34.6705 33.8013 34.7493 34 34.7493C34.1988 34.7493 34.3894 34.6705 34.53 34.53C34.6001 34.4607 34.6558 34.3782 34.6939 34.2872C34.7319 34.1962 34.7514 34.0986 34.7514 34C34.7514 33.9014 34.7319 33.8038 34.6939 33.7128C34.6558 33.6218 34.6001 33.5393 34.53 33.47ZM9.445 22.47C8.15514 21.1837 7.27594 19.5435 6.91872 17.7573C6.5615 15.971 6.74232 14.1189 7.43828 12.4354C8.13425 10.7519 9.31406 9.31282 10.8284 8.30025C12.3427 7.28768 14.1234 6.74718 15.945 6.74718C17.7667 6.74718 19.5473 7.28768 21.0616 8.30025C22.5759 9.31282 23.7558 10.7519 24.4517 12.4354C25.1477 14.1189 25.3285 15.971 24.9713 17.7573C24.6141 19.5435 23.7349 21.1837 22.445 22.47C20.7175 24.1877 18.3801 25.1515 15.944 25.1506C13.5078 25.1496 11.1712 24.1841 9.445 22.465V22.47Z" fill="black"/>
</svg>
