<svg width="40" height="40" viewBox="0 0 40 40" fill="none" xmlns="http://www.w3.org/2000/svg">
<g clip-path="url(#clip0_1_53)">
<path d="M20 23.4598C24.8136 23.4598 28.7299 19.5436 28.7299 14.7299C28.7299 9.91623 24.8136 6 20 6C15.1863 6 11.2701 9.91623 11.2701 14.7299C11.2701 19.5436 15.1863 23.4598 20 23.4598ZM20 6.875C24.3312 6.875 27.8549 10.3987 27.8549 14.7299C27.8549 19.0611 24.3312 22.5848 20 22.5848C15.6688 22.5848 12.1451 19.0611 12.1451 14.7299C12.1451 10.3987 15.6688 6.875 20 6.875ZM30.6238 22.6822C29.7124 21.919 28.4467 21.4987 27.0597 21.4987C26.9453 21.4987 26.8353 21.5436 26.7535 21.6237C24.9386 23.4019 22.5402 24.3812 20 24.3812C17.4598 24.3812 15.0613 23.4019 13.2464 21.6237C13.1647 21.5436 13.0547 21.4987 12.9402 21.4987C11.5585 21.4987 10.2965 21.9147 9.38663 22.67C8.37502 23.5098 7.84023 24.708 7.84023 26.1352V33.5625C7.84023 33.8041 8.03612 34 8.27773 34H31.7223C31.9639 34 32.1598 33.8041 32.1598 33.5625V26.1352C32.1598 24.7176 31.6286 23.5236 30.6238 22.6822ZM31.2848 33.125H8.71523V26.1352C8.71523 23.6083 10.722 22.4389 12.7666 22.3764C14.7295 24.2351 17.2908 25.2563 20 25.2563C22.7092 25.2563 25.2705 24.2351 27.2333 22.3764C29.278 22.439 31.2848 23.6084 31.2848 26.1352V33.125Z" fill="black"/>
</g>
<defs>
<clipPath id="clip0_1_53">
<rect width="28" height="28" fill="white" transform="translate(6 6)"/>
</clipPath>
</defs>
</svg>
