<svg width="40" height="40" viewBox="0 0 40 40" fill="none" xmlns="http://www.w3.org/2000/svg">
<path d="M31.3801 11.1002L8.63008 11H8.625C7.72617 11 7 11.8332 7 12.8668V26.852C7 27.8803 7.72617 28.7135 8.61992 28.7188L23.25 28.7504L24.875 28.7557L31.3699 28.7715H31.375C32.2738 28.7715 33 27.9383 33 26.9047V12.967C33 11.9387 32.2738 11.1055 31.3801 11.1002ZM32.5938 26.8994C32.5938 27.6957 32.0453 28.3443 31.375 28.3443L24.875 28.3285L23.25 28.3232L8.625 28.2916C7.95469 28.2916 7.40625 27.643 7.40625 26.8467V12.8615C7.40625 12.0652 7.95469 11.4166 8.625 11.4166H8.63008L31.3801 11.5168C32.0504 11.5221 32.5938 12.1654 32.5938 12.9617V26.8994Z" fill="black"/>
<path d="M31.2887 14.6281L20.4926 19.9121C20.1727 20.0334 19.8273 20.0334 19.5074 19.9068L8.71133 14.6281C8.60976 14.5807 8.48789 14.6229 8.44219 14.7283C8.39648 14.8338 8.43711 14.9604 8.53867 15.0078L19.3449 20.2918C19.35 20.2918 19.3551 20.2971 19.3602 20.2971C19.7715 20.4605 20.2285 20.4605 20.6449 20.3023C20.65 20.3023 20.6551 20.2971 20.6602 20.2971L31.4664 15.0078C31.568 14.9604 31.6137 14.8338 31.568 14.7283C31.5223 14.6229 31.3953 14.5754 31.2887 14.6281Z" fill="black"/>
</svg>
